<?xml version="1.0" encoding="UTF-8"?>
<svg id="Layer_2" data-name="Layer 2" xmlns="http://www.w3.org/2000/svg" viewBox="0 0 509.93 82.76">
  <defs>
    <style>
      .cls-1 {
        fill: #fff;
        stroke-width: 0px;
      }
    </style>
  </defs>
  <g id="Layer_1-2" data-name="Layer 1">
    <g>
      <g>
        <path class="cls-1" d="m148.35,64.88c0,10.73-8.55,16.62-24.59,16.62h-20.51V24.05h23.27c12.91,0,20.32,4.84,20.32,13.39,0,5.98-3.8,10.45-10.92,12.53,8.17,2.09,12.44,7.12,12.44,14.91Zm-32.1-35.51v18.33h6.93c7.41,0,11.49-3.42,11.49-9.5s-3.42-8.83-10.45-8.83h-7.98Zm6.74,46.81c8.93,0,12.82-3.51,12.82-11.58s-3.99-11.77-12.15-11.77h-7.41v23.36h6.74Z"/>
        <path class="cls-1" d="m194.68,69.44c0,5.13.19,8.45.85,11.87l-.09.19h-12.44c-.57-2.94-.76-5.89-.76-11.58-2.09,7.03-9.69,12.72-18.14,12.72-7.69,0-12.34-4.46-12.34-11.68,0-9.31,9.69-14.81,27.25-15.76l2.94-.09v-1.71c0-7.12-3.04-10.92-9.02-10.92s-9.69,4.08-9.69,11.2h-10.83c0-10.26,8.17-16.62,20.99-16.62s21.27,6.46,21.27,17.28v15.1Zm-12.72-5.13v-5.22l-2.75.19c-9.78.47-15.48,3.89-15.48,9.69,0,4.56,2.47,6.93,7.31,6.93,5.41,0,10.92-5.51,10.92-11.59Z"/>
        <path class="cls-1" d="m233.42,81.5l-11.77-24.21-7.03,6.36v17.85h-12.72V22.15h12.72v34.94l20.32-18.8h7.79l-12.06,10.92,16.24,32.29h-13.48Z"/>
        <path class="cls-1" d="m246.24,67.54h10.64c0,6.65,3.23,9.78,10.07,9.78,5.51,0,8.64-1.99,8.64-5.41,0-9.97-28.58-4.56-28.58-21.27,0-8.55,7.22-13.58,19.28-13.58s18.9,5.32,18.9,14.34h-10.64c0-5.98-3.04-8.93-9.5-8.93-5.13,0-7.88,1.71-7.88,4.84,0,9.78,28.68,4.75,28.68,21.65,0,8.55-7.41,13.77-19.66,13.77s-19.94-5.89-19.94-15.19Z"/>
        <path class="cls-1" d="m336.35,24.05h13.1v57.45h-13.1v-28.3h-20.61v28.3h-13.1V24.05h13.1v23.36h20.61v-23.36Z"/>
        <path class="cls-1" d="m355.44,59.85c0-13.01,8.83-22.69,24.59-22.69s24.4,9.69,24.4,22.69-9.12,22.88-24.4,22.88-24.59-9.78-24.59-22.88Zm35.7,0c0-11.77-4.75-17.28-11.11-17.28s-11.3,5.51-11.3,17.28,4.84,17.38,11.3,17.38,11.11-5.51,11.11-17.38Z"/>
        <path class="cls-1" d="m411.74,67.45v-23.83h-6.65v-3.42l16.52-9.02h2.85v7.12h18.99v5.32h-18.99v26.02c0,5.22,1.71,7.5,5.13,7.5s5.32-2.09,5.32-11.39h10.07c0,11.39-6.08,16.9-16.43,16.9s-16.81-4.84-16.81-15.19Z"/>
        <path class="cls-1" d="m491.6,60.71h-32c.29,11.87,4.84,16.52,11.02,16.52s9.78-3.99,9.78-11.77h10.73c0,10.26-7.88,17.28-21.37,17.28s-22.88-9.5-22.88-22.88c0-14.34,9.78-22.69,23.45-22.69,14.53,0,21.27,8.83,21.27,20.04v3.51Zm-31.91-4.46h20.8c-.38-9.31-3.61-13.67-9.88-13.67s-10.16,4.18-10.92,13.67Z"/>
        <path class="cls-1" d="m497.2,81.5V22.15h12.72v59.35h-12.72Z"/>
      </g>
      <g>
        <polygon class="cls-1" points="32.12 0 32.12 66.27 19.49 66.27 19.49 3.1 32.12 0"/>
        <polygon class="cls-1" points="38.69 0 38.69 66.27 51.32 66.27 51.32 3.1 38.69 0"/>
        <polygon class="cls-1" points="57.89 16.24 57.89 66.27 70.53 66.27 70.53 19.34 57.89 16.24"/>
        <polygon class="cls-1" points="12.92 16.24 12.92 66.27 .29 66.27 .29 19.34 12.92 16.24"/>
        <rect class="cls-1" y="70.12" width="70.53" height="12.63"/>
      </g>
    </g>
  </g>
</svg>